<?xml version="1.0" standalone="no"?>
<!DOCTYPE svg PUBLIC "-//W3C//DTD SVG 20010904//EN"
 "http://www.w3.org/TR/2001/REC-SVG-20010904/DTD/svg10.dtd">
<svg version="1.0" xmlns="http://www.w3.org/2000/svg"
 width="225.000000pt" height="225.000000pt" viewBox="0 0 225.000000 225.000000"
 preserveAspectRatio="xMidYMid meet">

<g transform="translate(0.000000,225.000000) scale(0.100000,-0.100000)"
fill="#000000" stroke="none">
<path d="M975 2239 c-366 -46 -713 -302 -870 -642 -136 -294 -136 -650 0 -944
103 -224 306 -430 529 -538 373 -181 826 -140 1152 103 570 425 621 1235 108
1722 -248 236 -574 342 -919 299z m280 -350 c115 -43 201 -139 231 -259 43
-168 -43 -348 -204 -427 -51 -25 -68 -28 -157 -28 -89 0 -106 3 -157 28 -294
144 -282 559 19 683 77 31 189 33 268 3z m183 -913 c149 -40 262 -172 278
-323 9 -88 -15 -137 -99 -197 -81 -58 -210 -118 -302 -142 -96 -24 -284 -24
-380 0 -158 41 -348 153 -386 229 -55 107 26 307 158 388 83 51 129 58 413 58
197 1 279 -3 318 -13z"/>
</g>
</svg>
